PathFileType	3	(X/Y/Z)	dance_move_1__view2_aligned.trc
DataRate	CameraRate	NumFrames	NumMarkers	Units	OrigDataRate	OrigDataStartFrame	OrigNumFrames
100.0	100.0	13	19	mm	100.0	355	890
Frame#	Time	pelvis			neck			head			hip_left			hip_right			knee_left			knee_right			ankle_left			ankle_right			heel_left			heel_right			toe_left			toe_right			shoulder_left			shoulder_right			elbow_left			elbow_right			wrist_left			wrist_right			
		X1	Y1	Z1	X2	Y2	Z2	X3	Y3	Z3	X4	Y4	Z4	X5	Y5	Z5	X6	Y6	Z6	X7	Y7	Z7	X8	Y8	Z8	X9	Y9	Z9	X10	Y10	Z10	X11	Y11	Z11	X12	Y12	Z12	X13	Y13	Z13	X14	Y14	Z14	X15	Y15	Z15	X16	Y16	Z16	X17	Y17	Z17	X18	Y18	Z18	X19	Y19	Z19	
355	3.54000	44.823431	724.865186	120.318555	34.196314	1188.103998	-188.669569	21.665785	1210.395836	-350.806567	-29.824050	721.620221	119.950409	119.470911	728.110152	120.686715	-132.404603	463.818734	-177.014334	229.060668	462.774969	-174.348607	-146.523102	124.593123	23.366054	213.700179	101.265183	-14.373247	-145.839913	87.492816	69.293652	203.682427	60.745134	27.832092	-157.583845	43.440962	-142.739630	261.948653	22.892364	-180.789717	-146.416334	1137.203236	-154.709529	214.461770	1153.803415	-160.204707	-149.766082	849.920314	-163.509761	272.617335	877.346625	-192.454127	-91.265174	616.097260	-229.738787	187.991549	672.511351	-287.733199
356	3.55000	42.288341	724.819744	120.014696	30.637404	1187.461684	-188.921384	18.071459	1209.757123	-350.916620	-32.246651	721.487498	119.372117	116.823330	728.151990	120.657290	-130.704532	463.309829	-180.512670	226.420881	463.401621	-175.655259	-146.296315	124.894546	22.232525	210.141870	101.817650	-14.940813	-146.082521	87.988650	68.444946	200.003331	61.350915	27.326199	-156.468198	43.285839	-143.683242	258.205513	23.023505	-181.176126	-149.854919	1135.573747	-155.189190	211.051642	1153.640310	-160.671983	-149.212018	847.392244	-164.419309	267.170537	876.459001	-193.939214	-85.890015	613.652764	-231.712357	180.177053	672.260406	-289.055687
357	3.56000	39.753250	724.774302	119.710837	27.078495	1186.819369	-189.173200	14.477133	1209.118410	-351.026673	-34.669252	721.354775	118.793825	114.175750	728.193829	120.627865	-129.004460	462.800925	-184.011006	223.781093	464.028273	-176.961911	-146.069528	125.195969	21.098996	206.583561	102.370117	-15.508379	-146.325129	88.484484	67.596240	196.324235	61.956696	26.820306	-155.352552	43.130716	-144.626855	254.462374	23.154645	-181.562535	-153.293504	1133.944259	-155.668851	207.641514	1153.477206	-161.139259	-148.657955	844.864175	-165.328857	261.723740	875.571378	-195.424301	-80.514855	611.208267	-233.685928	172.362556	672.009462	-290.378175
358	3.57000	37.218160	724.728859	119.406979	23.519585	1186.177055	-189.425016	10.882807	1208.479697	-351.136727	-37.091853	721.222052	118.215533	111.528170	728.235667	120.598439	-127.304389	462.292020	-187.509342	221.141306	464.654925	-178.268564	-145.842740	125.497392	19.965466	203.025252	102.922585	-16.075945	-146.567737	88.980319	66.747534	192.645138	62.562476	26.314413	-154.236905	42.975593	-145.570467	250.719234	23.285786	-181.948944	-156.732090	1132.314771	-156.148512	204.231386	1153.314102	-161.606535	-148.103892	842.336105	-166.238405	256.276943	874.683754	-196.909387	-75.139696	608.763771	-235.659498	164.548059	671.758517	-291.700662
359	3.58000	34.683069	724.683417	119.103120	19.960676	1185.534741	-189.676832	7.288481	1207.840984	-351.246780	-39.514453	721.089329	117.637241	108.880589	728.277506	120.569014	-125.604318	461.783115	-191.007679	218.501518	465.281576	-179.575216	-145.615953	125.798815	18.831937	199.466943	103.475052	-16.643512	-146.810345	89.476153	65.898829	188.966042	63.168257	25.808521	-153.121258	42.820471	-146.514080	246.976095	23.416927	-182.335353	-160.170675	1130.685282	-156.628173	200.821258	1153.150997	-162.073811	-147.549829	839.808036	-167.147954	250.830146	873.796131	-198.394474	-69.764536	606.319274	-237.633069	156.733563	671.507573	-293.023150
360	3.59000	32.147979	724.637975	118.799261	16.401767	1184.892427	-189.928648	3.694154	1207.202271	-351.356833	-41.937054	720.956606	117.058949	106.233009	728.319344	120.539589	-123.904247	461.274211	-194.506015	215.861731	465.908228	-180.881868	-145.389166	126.100238	17.698407	195.908634	104.027519	-17.211078	-147.052953	89.971987	65.050123	185.286945	63.774037	25.302628	-152.005612	42.665348	-147.457693	243.232956	23.548067	-182.721761	-163.609260	1129.055794	-157.107834	197.411130	1152.987893	-162.541087	-146.995766	837.279966	-168.057502	245.383349	872.908508	-199.879560	-64.389377	603.874777	-239.606639	148.919066	671.256629	-294.345638
361	3.60000	29.612888	724.592532	118.495402	12.842857	1184.250113	-190.180463	0.099828	1206.563558	-351.466887	-44.359655	720.823883	116.480657	103.585429	728.361183	120.510163	-122.204176	460.765306	-198.004351	213.221943	466.534880	-182.188520	-145.162378	126.401661	16.564878	192.350325	104.579986	-17.778644	-147.295561	90.467822	64.201417	181.607849	64.379818	24.796735	-150.889965	42.510225	-148.401305	239.489816	23.679208	-183.108170	-167.047846	1127.426306	-157.587495	194.001002	1152.824788	-163.008363	-146.441703	834.751897	-168.967050	239.936552	872.020884	-201.364647	-59.014217	601.430281	-241.580210	141.104570	671.005684	-295.668126
362	3.61000	27.077797	724.547090	118.191544	9.283948	1183.607799	-190.432279	-3.494498	1205.924845	-351.576940	-46.782255	720.691160	115.902364	100.937848	728.403021	120.480738	-120.504104	460.256402	-201.502687	210.582156	467.161531	-183.495172	-144.935591	126.703084	15.431349	188.792016	105.132453	-18.346211	-147.538169	90.963656	63.352711	177.928753	64.985598	24.290843	-149.774319	42.355102	-149.344918	235.746677	23.810348	-183.494579	-170.486431	1125.796817	-158.067156	190.590873	1152.661684	-163.475639	-145.887640	832.223827	-169.876598	234.489755	871.133261	-202.849734	-53.639058	598.985784	-243.553780	133.290073	670.754740	-296.990614
363	3.62000	26.696320	724.731525	117.926222	8.519285	1183.686320	-190.557657	-4.154549	1206.093591	-351.642435	-47.138550	720.829701	115.592175	100.531165	728.633351	120.260277	-120.513284	460.366368	-202.311348	211.650779	467.366365	-183.530882	-145.275360	126.954561	15.061595	190.573364	105.318313	-18.250217	-147.962886	91.231479	63.003695	179.744047	65.140812	24.364513	-150.113918	42.734869	-149.714779	237.925917	24.275946	-183.368155	-171.082538	1125.785292	-158.260777	189.718592	1152.862336	-163.620656	-145.965316	832.050373	-170.440512	233.199000	871.088789	-203.175256	-52.918763	598.695245	-244.650501	131.950113	670.547299	-297.172808
364	3.63000	26.314843	724.915960	117.660900	7.754622	1183.764842	-190.683034	-4.814600	1206.262338	-351.707931	-47.494845	720.968242	115.281985	100.124482	728.863681	120.039816	-120.522464	460.476335	-203.120009	212.719403	467.571199	-183.566593	-145.615130	127.206037	14.691841	192.354712	105.504172	-18.154223	-148.387602	91.499301	62.654680	181.559342	65.296026	24.438183	-150.453517	43.114637	-150.084639	240.105158	24.741543	-183.241731	-171.678645	1125.773766	-158.454398	188.846311	1153.062989	-163.765672	-146.042991	831.876919	-171.004426	231.908245	871.044318	-203.500778	-52.198468	598.404705	-245.747221	130.610152	670.339858	-297.355002
365	3.64000	25.933366	725.100396	117.395578	6.989959	1183.843364	-190.808412	-5.474651	1206.431084	-351.773426	-47.851139	721.106783	114.971796	99.717800	729.094010	119.819354	-120.531644	460.586301	-203.928670	213.788027	467.776033	-183.602303	-145.954900	127.457514	14.322087	194.136061	105.690032	-18.058230	-148.812319	91.767124	62.305664	183.374636	65.451239	24.511853	-150.793116	43.494404	-150.454500	242.284398	25.207141	-183.115307	-172.274751	1125.762240	-158.648019	187.974030	1153.263641	-163.910689	-146.120666	831.703465	-171.568340	230.617491	870.999847	-203.826300	-51.478173	598.114165	-246.843941	129.270192	670.132418	-297.537196
366	3.65000	25.551889	725.284831	117.130256	6.225296	1183.921885	-190.933789	-6.134702	1206.599830	-351.838922	-48.207434	721.245324	114.661607	99.311117	729.324340	119.598893	-120.540824	460.696268	-204.737331	214.856650	467.980866	-183.638013	-146.294669	127.708990	13.952333	195.917409	105.875891	-17.962236	-149.237035	92.034946	61.956648	185.189931	65.606453	24.585523	-151.132715	43.874171	-150.824361	244.463638	25.672738	-182.988883	-172.870858	1125.750715	-158.841640	187.101749	1153.464293	-164.055705	-146.198341	831.530011	-172.132255	229.326736	870.955375	-204.151823	-50.757878	597.823625	-247.940662	127.930232	669.924977	-297.719390
367	3.66000	25.170412	725.469266	116.864934	5.460634	1184.000407	-191.059167	-6.794754	1206.768577	-351.904417	-48.563729	721.383865	114.351417	98.904434	729.554670	119.378432	-120.550004	460.806234	-205.545992	215.925274	468.185700	-183.673724	-146.634439	127.960466	13.582579	197.698757	106.061751	-17.866242	-149.661751	92.302769	61.607632	187.005225	65.761667	24.659193	-151.472314	44.253938	-151.194222	246.642879	26.138335	-182.862459	-173.466965	1125.739189	-159.035261	186.229468	1153.664945	-164.200722	-146.276017	831.356557	-172.696169	228.035982	870.910904	-204.477345	-50.037582	597.533085	-249.037382	126.590271	669.717536	-297.901585
